<svg height="512pt" viewBox="-166 0 512 512" width="512pt" xmlns="http://www.w3.org/2000/svg" fill="#fff"><path d="m68.953125 512c-38.019531 0-68.953125-30.910156-68.953125-68.902344v-353.101562c0-49.625 40.402344-89.996094 90.066406-89.996094 49.660156 0 90.0625 40.371094 90.0625 89.996094v290.605468c0 8.285157-6.714844 15-15 15-8.28125 0-15-6.714843-15-15v-290.605468c0-33.082032-26.945312-59.996094-60.0625-59.996094-33.121094 0-60.066406 26.914062-60.066406 59.996094v353.101562c0 21.449219 17.476562 38.902344 38.953125 38.902344s38.953125-17.453125 38.953125-38.902344v-287.21875c0-9.101562-7.421875-16.511718-16.542969-16.511718-9.121093 0-16.539062 7.40625-16.539062 16.511718v224.722656c0 8.285157-6.71875 15-15 15-8.285157 0-15-6.714843-15-15v-224.722656c0-25.644531 20.878906-46.511718 46.539062-46.511718 25.664063 0 46.542969 20.867187 46.542969 46.511718v287.21875c0 37.992188-30.933594 68.902344-68.953125 68.902344zm0 0"/></svg>